<svg width="500" height="500" version="1.1" xmlns="http://www.w3.org/2000/svg" desc="Created with imagetracer.js version 1.2.6" ><path fill="rgb(231,226,221)" stroke="rgb(231,226,221)" stroke-width="1" opacity="0.8784313725490196" d="M 155.5 183 L 160.5 184 L 161.5 183 Q 163.3 186.1 165 184.5 Q 164.2 187.1 167.5 186 L 167.5 188 L 170 188.5 L 170 190.5 Q 169.3 192.8 171.5 192 L 171 193.5 Q 169.5 199 172 200.5 Q 168 202.8 168 208 L 163 211.5 L 162.5 213 Q 161 210.5 159.5 214 L 156 215 L 155.5 217 L 153 216 L 152.5 218 L 151 217.5 L 150.5 219 L 148.5 218 L 144.5 221 L 142.5 220 L 140.5 222 L 136.5 222 L 123.5 228 L 118 232.5 L 117.5 234 L 116.5 233 L 108 241.5 L 108.5 243 L 106 243 Q 107.1 245.7 104.5 245 L 104.5 247 L 103.5 246 L 100.5 249 L 98 250.5 Q 98.8 252.8 96.5 252 L 90.5 255 L 79.5 255 Q 77.8 251.9 76 253.5 Q 76.8 251.3 74.5 252 L 73.5 249 L 72 248.5 L 72 246.5 Q 70.3 240.3 73 238.5 L 72.5 237 Q 74.8 237.8 74 235.5 L 74.5 233 L 86.5 224 L 88 224.5 Q 87.1 221.5 91.5 223 L 100.5 218 Q 102 220.5 103.5 217 L 105.5 216 L 107.5 216 Q 109.8 216.8 109 214.5 L 111.5 214 L 114 212.5 L 114.5 211 L 115.5 212 L 119.5 208 L 126 203.5 L 125.5 202 Q 129.3 203.3 128 199.5 L 130 199.5 L 130.5 197 L 132 197.5 L 132 196 L 134 196 Q 132.9 193.3 135.5 194 L 141.5 188 L 144 187.5 L 143.5 186 L 145.5 186 Q 147.8 186.8 147 184.5 L 149.5 184 Q 154.2 185.3 155.5 183 Z " /><path fill="rgb(231,226,221)" stroke="rgb(231,226,221)" stroke-width="1" opacity="0.8784313725490196" d="M 171.5 221 L 179.5 221 L 185 223 Q 183.9 225.7 186.5 225 L 189 227.5 L 189 229.5 Q 188.4 234.1 191 235.5 L 189 238.5 L 189 240.5 L 188 245 L 186 245.5 L 186.5 247 L 182 250.5 Q 182.8 253.1 179.5 252 L 178 255 L 173 256 L 172.5 258 L 170 257 L 169.5 259 L 168 258.5 L 167.5 260 L 165.5 259 L 161.5 262 L 159.5 261 L 153.5 264 L 151.5 264 L 146 265 L 145.5 267 L 143.5 267 L 138 269 L 137.5 271 L 135.5 271 L 132 273.5 Q 132.8 276.1 129.5 275 L 127 279 L 119 284.5 Q 119.8 287.1 116.5 286 L 113 288 L 111.5 291 L 110 290.5 Q 110.9 293.5 106.5 292 L 99.5 294 L 95.5 292 L 94 292.5 L 92.5 290 L 91 290.5 L 89 283.5 L 87 281.5 L 89 278.5 L 88 276 L 90 275.5 L 89.5 274 Q 91.8 274.8 91 272.5 L 94 268 L 96.5 268 L 102.5 263 L 104 263.5 Q 103.3 261.3 105.5 262 L 109.5 260 L 111.5 259 L 113.5 259 L 119 257 L 119.5 255 L 121 255.5 L 121.5 254 L 122.5 255 L 125.5 252 L 130 249.5 L 129.5 248 L 130.5 249 L 136 243.5 Q 135.2 240.9 138.5 242 L 150 233 Q 148.8 230 152.5 231 L 159 227 L 159.5 225 L 161.5 225 L 171.5 221 Z " /><path fill="rgb(231,226,221)" stroke="rgb(231,226,221)" stroke-width="1" opacity="0.8784313725490196" d="M 210 221 L 223.5 221 L 224 222.5 L 226 225.5 L 225 227.5 L 229 238.5 L 230 247 L 232.5 248 L 234 242.5 L 233.5 241 Q 236.5 241.9 235 237.5 Q 237.2 236.2 236 231.5 L 238 228.5 Q 235.5 227 239 225.5 L 238 223.5 L 240.5 221 L 254 221 L 254 266.5 L 253.5 267 L 245.5 267 L 244 265.5 L 243.5 242 L 240 250.5 L 240 252.5 L 238 256.5 L 238 258.5 L 236 267 Q 229.8 268.3 227 265.5 L 227 263.5 L 225 254.5 L 223 252.5 L 223 250.5 L 223 247.5 L 220.5 243 L 219 245.5 L 219 247.5 L 219 267 L 210 267 L 209 262.5 L 210 261.5 L 210 221 Z " /><path fill="rgb(231,226,221)" stroke="rgb(231,226,221)" stroke-width="1" opacity="0.8784313725490196" d="M 261 221 L 271 221 L 271 238.5 L 272 238.5 L 279 226.5 L 278.5 225 Q 280.8 225.8 280 223.5 L 282.5 221 L 293.5 221 L 293.5 222 Q 291.3 221.3 292 223.5 L 291.5 226 L 290 226.5 L 290.5 228 L 288 229.5 L 287 234 Q 284.3 232.9 285 235.5 L 281 241.5 L 281 245 L 283 245 Q 281.5 248.7 284.5 248 Q 282.9 249.8 286 251.5 Q 285.3 253.8 287.5 253 Q 285.9 254.8 289 256.5 L 290 260 L 293 261.5 L 293 263.5 L 295 266.5 L 288.5 268 L 282 267 L 280.5 263 L 279 262.5 L 279.5 261 L 278 260.5 Q 280.5 259 277 257.5 L 271.5 247 L 271 267 L 261.5 267 L 261 266.5 L 261 221 Z " /><path fill="rgb(231,226,221)" stroke="rgb(231,226,221)" stroke-width="1" opacity="0.8784313725490196" d="M 295 221 L 327 221 L 327 231.5 L 325.5 231 L 316 231.5 L 317 235.5 L 316 239.5 L 317 242.5 L 316 247.5 Q 318.3 248.7 317 253.5 L 316 255.5 L 316 257.5 L 317 260.5 L 317 262.5 Q 318 267 315.5 268 L 310.5 267 L 307.5 268 L 306 266.5 L 306 231.5 L 305.5 231 L 297.5 231 L 296 231.5 L 295 221 Z " /><path fill="rgb(231,226,221)" stroke="rgb(231,226,221)" stroke-width="1" opacity="0.8784313725490196" d="M 332.5 221 L 355 221 L 355 229.5 L 353.5 231 L 344.5 231 L 341 230.5 L 341 240 L 353.5 240 L 355 241.5 L 355 249 L 341 249 L 341 267 L 331 267 L 331 222.5 L 332.5 221 Z " /><path fill="rgb(231,226,221)" stroke="rgb(231,226,221)" stroke-width="1" opacity="0.8784313725490196" d="M 360.5 221 Q 367.3 219.3 369 222.5 L 369 266.5 L 368.5 267 L 360.5 267 L 359 265.5 L 359 222.5 L 360.5 221 Z " /><path fill="rgb(231,226,221)" stroke="rgb(231,226,221)" stroke-width="1" opacity="0.8784313725490196" d="M 385.5 233 L 387.5 234 L 389.5 233 L 392.5 234 L 394.5 234 L 400 237 L 400.5 239 L 402 238.5 L 405 245.5 L 405 255.5 L 403 259.5 L 400 265 L 391.5 269 L 381.5 266 L 380 266.5 L 377.5 263 Q 374.9 263.8 376 260.5 L 373 256.5 L 374 255.5 L 374 244.5 L 376 239 L 379 237.5 L 380.5 235 Q 384.8 235.8 385.5 233 Z M 388 243 L 386 244 L 383 249 L 384 250 L 383 254 Q 386 255 384 257 L 388 259 Q 394 260 395 256 Q 397 247 393 244 L 392 244 L 388 243 Z " /><path fill="rgb(231,226,221)" stroke="rgb(231,226,221)" stroke-width="1" opacity="0.8784313725490196" d="M 405.5 234 Q 413 233 416 235 L 415 238.5 L 418 243.5 L 417 246.5 L 419 250 Q 421.7 251.1 421 248.5 L 422 246.5 L 421.5 245 Q 423.8 245.8 423 243.5 L 423 241.5 L 425 236.5 Q 422.8 235.2 425.5 234 Q 432.3 232.3 434 235.5 L 437 242.5 L 436 244.5 L 439.5 252 L 444 234 L 453.5 234 L 454 235.5 L 452 239.5 L 452 241.5 L 450 246.5 Q 452.5 248 449 249.5 L 447 255.5 L 447 260.5 L 445 262.5 L 445 264.5 L 444 268 Q 440.9 266 434 267 Q 435.5 263.3 432.5 264 L 433 262.5 L 431 258.5 L 431 256.5 L 430 253.5 L 430 251.5 L 429.5 250 L 427 256.5 L 428 258.5 L 425 263.5 Q 426.5 267.9 423.5 267 L 421.5 267 L 414.5 267 L 414 265.5 L 412 262.5 L 412 260.5 L 410 256.5 L 411 253.5 L 406 243.5 L 407 241.5 L 404 235.5 L 405.5 234 Z M 419 251 Q 418 254 421 253 Q 422 250 419 251 Z " /><path fill="rgb(231,226,221)" stroke="rgb(231,226,221)" stroke-width="1" opacity="0.8784313725490196" d="M 160.5 277 L 166.5 277 L 172 281.5 L 171 285.5 L 172 287.5 L 169 291.5 L 169.5 293 L 159 301 L 158.5 303 L 157 302.5 Q 157.8 304.8 155.5 304 L 148.5 306 L 146.5 308 L 144.5 308 L 139.5 309 L 137.5 309 L 132.5 308 L 130.5 308 L 126.5 308 L 119 304.5 L 118 300.5 L 119 298 L 123 298 L 123 296 Q 128.3 297.3 127.5 294 L 130.5 294 L 137 290 Q 135.9 287.3 138.5 288 L 144 284.5 L 144.5 283 Q 146 285.5 147.5 282 L 152.5 279 L 160.5 277 Z " /><path fill="rgb(0,0,0)" stroke="rgb(0,0,0)" stroke-width="1" opacity="0" d="M 0 0 L 500 0 L 500 500 L 0 500 L 0 0 Z M 156 183 Q 154 185 150 184 L 148 184 L 147 186 Q 139 188 136 194 Q 133 193 134 196 L 132 196 L 132 198 L 131 197 L 130 200 L 128 200 Q 129 203 126 202 L 126 204 L 120 208 L 116 212 L 115 211 L 114 213 L 112 214 L 109 215 Q 110 217 108 216 L 106 216 L 104 217 Q 102 220 101 218 L 92 223 Q 87 221 88 225 L 87 224 L 75 233 L 74 236 Q 75 238 73 237 L 73 239 Q 70 240 72 247 L 72 249 L 74 249 L 75 252 Q 77 251 76 254 Q 78 252 80 255 L 91 255 L 97 252 Q 99 253 98 251 L 105 245 Q 107 246 106 243 L 109 243 L 108 242 L 117 233 L 118 234 L 118 233 L 124 228 L 137 222 L 141 222 L 143 220 L 145 221 L 149 218 L 151 219 L 151 218 L 153 218 L 153 216 L 156 217 L 156 215 L 160 214 Q 161 210 163 213 L 163 212 L 168 208 Q 168 203 172 201 Q 170 199 171 194 L 172 192 Q 169 193 170 191 L 170 189 L 168 188 L 168 186 Q 164 187 165 185 Q 163 186 162 183 L 161 184 L 156 183 Z M 172 221 L 162 225 L 160 225 L 159 227 L 153 231 Q 149 230 150 233 L 139 242 Q 135 241 136 244 L 126 252 L 123 255 L 122 254 L 121 256 L 120 255 L 119 257 L 114 259 L 112 259 L 110 260 L 106 262 Q 103 261 104 264 L 103 263 L 97 268 L 94 268 L 91 273 Q 92 275 90 274 L 90 276 L 88 276 L 89 279 L 87 282 L 89 284 L 91 291 L 93 290 L 94 293 L 96 292 L 100 294 L 107 292 Q 111 293 110 291 L 112 291 L 113 288 L 117 286 Q 120 287 119 285 L 127 279 L 130 275 Q 133 276 132 274 L 136 271 L 138 271 L 138 269 L 144 267 L 146 267 L 146 265 L 152 264 L 154 264 L 160 261 L 162 262 L 166 259 L 168 260 L 168 259 L 170 259 L 170 257 L 173 258 L 173 256 L 178 255 L 180 252 Q 183 253 182 251 L 187 247 L 186 246 L 188 245 L 189 241 L 189 239 L 191 236 Q 188 234 189 230 L 189 228 L 187 225 Q 184 226 185 223 L 180 221 L 172 221 Z M 210 221 L 210 262 L 209 263 L 210 267 L 219 267 L 219 248 L 219 246 L 221 243 L 223 248 L 223 251 L 223 253 L 225 255 L 227 264 L 227 266 Q 230 268 236 267 L 238 259 L 238 257 L 240 253 L 240 251 L 244 242 L 244 266 L 246 267 L 254 267 L 254 267 L 254 221 L 241 221 L 238 224 L 239 226 Q 235 227 238 229 L 236 232 Q 237 236 235 238 Q 236 242 234 241 L 234 243 L 232 249 L 232 248 L 230 247 L 229 239 L 225 228 L 226 226 L 224 223 L 224 221 L 210 221 Z M 261 221 L 261 267 L 262 267 L 271 267 L 272 247 L 277 258 Q 280 259 278 261 L 280 261 L 279 263 L 281 263 L 282 267 L 289 268 L 295 267 L 293 264 L 293 262 L 290 260 L 289 257 Q 286 255 288 253 Q 285 254 286 252 Q 283 250 285 248 Q 282 249 283 245 L 281 245 L 281 242 L 285 236 Q 284 233 287 234 L 288 230 L 291 228 L 290 227 L 292 226 L 292 224 Q 291 221 294 222 L 294 221 L 283 221 L 280 224 Q 281 226 279 225 L 279 227 L 272 239 L 271 239 L 271 221 L 261 221 Z M 295 221 L 296 232 L 298 231 L 306 231 L 306 232 L 306 267 L 308 268 L 311 267 L 316 268 Q 318 267 317 263 L 317 261 L 316 258 L 316 256 L 317 254 Q 318 249 316 248 L 317 243 L 316 240 L 317 236 L 316 232 L 326 231 L 327 232 L 327 221 L 295 221 Z M 333 221 L 331 223 L 331 267 L 341 267 L 341 249 L 355 249 L 355 242 L 354 240 L 341 240 L 341 231 L 345 231 L 354 231 L 355 230 L 355 221 L 333 221 Z M 361 221 L 359 223 L 359 266 L 361 267 L 369 267 L 369 267 L 369 223 Q 367 219 361 221 Z M 386 233 Q 385 236 381 235 L 379 238 L 376 239 L 374 245 L 374 256 L 373 257 L 376 261 Q 375 264 378 263 L 380 267 L 382 266 L 392 269 L 400 265 L 403 260 L 405 256 L 405 246 L 402 239 L 401 239 L 400 237 L 395 234 L 393 234 L 390 233 L 388 234 L 386 233 Z M 406 234 L 404 236 L 407 242 L 406 244 L 411 254 L 410 257 L 412 261 L 412 263 L 414 266 L 415 267 L 422 267 L 424 267 Q 427 268 425 264 L 428 259 L 427 257 L 430 250 L 430 252 L 430 254 L 431 257 L 431 259 L 433 263 L 433 264 Q 436 263 434 267 Q 441 266 444 268 L 445 265 L 445 263 L 447 261 L 447 256 L 449 250 Q 452 248 450 247 L 452 242 L 452 240 L 454 236 L 454 234 L 444 234 L 440 252 L 436 245 L 437 243 L 434 236 Q 432 232 426 234 Q 423 235 425 237 L 423 242 L 423 244 Q 424 246 422 245 L 422 247 L 421 249 Q 422 251 419 250 L 417 247 L 418 244 L 415 239 L 416 235 Q 413 233 406 234 Z M 161 277 L 153 279 L 148 282 Q 146 285 145 283 L 144 285 L 139 288 Q 136 287 137 290 L 131 294 L 128 294 Q 128 297 123 296 L 123 298 L 119 298 L 118 301 L 119 305 L 127 308 L 131 308 L 133 308 L 138 309 L 140 309 L 145 308 L 147 308 L 149 306 L 156 304 Q 158 305 157 303 L 159 303 L 159 301 L 170 293 L 169 292 L 172 288 L 171 286 L 172 282 L 167 277 L 161 277 Z " /><path fill="rgb(0,0,0)" stroke="rgb(0,0,0)" stroke-width="1" opacity="0" d="M 219.5 240 L 220.5 242 L 219.5 240 Z " /><path fill="rgb(0,0,0)" stroke="rgb(0,0,0)" stroke-width="1" opacity="0" d="M 387.5 243 L 391.5 244 L 393 243.5 Q 396.8 246.7 395 255.5 Q 393.7 259.7 387.5 259 L 384 256.5 Q 386.5 255 383 253.5 L 384 249.5 L 383 248.5 L 385.5 244 L 387.5 243 Z " /><path fill="rgb(0,0,0)" stroke="rgb(0,0,0)" stroke-width="1" opacity="0" d="M 419 251 Q 422 250 421 253 Q 418 254 419 251 Z " /></svg>